<svg xmlns="http://www.w3.org/2000/svg" viewBox="0 0 48 48" height="48" width="48"><path fill="none" d="M-.405.29h48v48h-48z"/><path fill="#fff" d="M8.988 4.546h29.214v39.358H8.988z"/><path d="M23.83.846c-3.16.17-4.533.058-7.423.4C5.007 2.649 5.867.77 5.867 24.232c0 21.965-.5 21.628 7.714 22.66.313.055.631.12.933.163 3.234.473 6.128.695 9.081.678 2.954.017 5.847-.205 9.08-.678.232-.033.471-.083.71-.134 8.456-1.07 7.937-.521 7.937-22.689 0-23.461.862-21.583-10.537-22.984-1.531-.188-5.224-.413-6.955-.401zm-.1 16.058c5.171-.018 6.696-11.578 10.928-9.19 3.031 1.71-1.363 6.478-5.137 10.462-2.184 2.307-3.012 4.653-3.012 5.629 0 .914.683 5.65 2.735 8.077 3.657 4.325 6.474 6.879 5.706 8.88-.215.56-1.419 2.109-3.524 2.595-5.714 1.319-16.221.94-18.102-1.004-2.415-3.18 1.36-6.321 6.024-11.308 1.82-1.945 1.805-6.848 1.805-7.641 0-.794-1.181-2.238-2.908-4.342-5.85-7.13-7.303-11.466-4.061-12.127 2.41-.491 6.443 9.98 9.546 9.969z" fill="#4d4d4d"/></svg>